<svg xmlns="http://www.w3.org/2000/svg" viewBox="60 17 90 90">
  <defs>
    <clipPath id="a">
      <path d="M55 0h105v96.6h-13.6a41 7.6 0 0 1-82 0H55Z" />
    </clipPath>
  </defs>
  <ellipse cx="105.4" cy="96.6" rx="44" ry="10.1" />
  <g clip-path="url(#a)">
    <path fill="#fff" stroke="#000" stroke-linecap="round" stroke-linejoin="round"
      stroke-width="3.5"
      d="M86 121V89a90 90 0 0 0-4.5-22c-2.5-8-6-16-6.5-24-.4-6 2-9.5 6-10.2s7.5 2 10.5 6.2a53 53 0 0 1 8.5 24c.7 6 .6 10 .6 14.7q2.9-1.4 6-1.8c.2-8.9 0-20.9-.3-30.9-.2-8 .7-15 5.5-16.2 4.7-1 8.2 2.2 9.8 6.7A78 78 0 0 1 124 65c-.6 6-2 11-2.8 15.6 2.1 2.9 4.8 7.4 6 11.4.6 4 .6 9 .6 29Z" />
    <path fill="none" stroke="#000" stroke-linecap="round" stroke-width="3.5"
      d="M99.6 78.2q7.4-4.6 15-.8" />
    <ellipse cx="100" cy="94" rx="2" ry="3" />
    <ellipse cx="118" cy="93" rx="2" ry="3" />
    <ellipse cx="109.4" cy="97" rx="2.6" ry="2"
      transform="rotate(-12 123.7 98.6)" />
  </g>
</svg>